<svg width="177" height="38" viewBox="0 0 177 38" fill="none" xmlns="http://www.w3.org/2000/svg">
<path d="M14.2493 23.7504L9.55002 28.4497C9.02699 28.9726 8.36067 29.3287 7.63529 29.473C6.90991 29.6172 6.15805 29.5432 5.47476 29.2602C4.79146 28.9771 4.20743 28.4979 3.79648 27.883C3.38553 27.2681 3.16613 26.5451 3.16602 25.8056V23.7504L5.3146 13.0091C5.60157 11.5733 6.37711 10.2814 7.50928 9.353C8.64145 8.42463 10.0603 7.91721 11.5244 7.91705H26.4743C27.9384 7.91721 29.3572 8.42463 30.4894 9.353C31.6216 10.2814 32.3971 11.5733 32.6841 13.0091L34.8327 23.7504V25.804C34.8326 26.5436 34.6132 27.2665 34.2022 27.8814C33.7913 28.4963 33.2072 28.9756 32.5239 29.2586C31.8406 29.5416 31.0888 29.6156 30.3634 29.4714C29.638 29.3271 28.9717 28.971 28.4487 28.4481L23.7493 23.7504H14.2493Z" stroke="white" stroke-width="3.16667" stroke-linecap="round" stroke-linejoin="round"/>
<path d="M14.25 7.91711L15.8333 11.0838H22.1667L23.75 7.91711" stroke="white" stroke-width="3.16667" stroke-linecap="round" stroke-linejoin="round"/>
<path d="M54.5384 26L50.3764 11.4545H53.7358L56.1435 21.5611H56.2642L58.9205 11.4545H61.7969L64.446 21.5824H64.5739L66.9815 11.4545H70.3409L66.179 26H63.1818L60.4119 16.4901H60.2983L57.5355 26H54.5384ZM74.9556 19.6932V26H71.93V11.4545H74.8704V17.0156H74.9982C75.2444 16.3717 75.6422 15.8674 76.1914 15.5028C76.7406 15.1335 77.4296 14.9489 78.2582 14.9489C79.0157 14.9489 79.6763 15.1146 80.2397 15.446C80.8079 15.7727 81.2482 16.2438 81.5607 16.8594C81.878 17.4702 82.0342 18.2017 82.0295 19.054V26H79.0039V19.5938C79.0086 18.9214 78.8382 18.3982 78.4925 18.0241C78.1516 17.6501 77.6734 17.4631 77.0579 17.4631C76.646 17.4631 76.2814 17.5507 75.9641 17.7259C75.6516 17.901 75.4054 18.1567 75.2255 18.4929C75.0503 18.8243 74.9603 19.2244 74.9556 19.6932ZM84.4105 26V15.0909H87.4361V26H84.4105ZM85.9304 13.6847C85.4806 13.6847 85.0947 13.5355 84.7727 13.2372C84.4555 12.9342 84.2969 12.572 84.2969 12.1506C84.2969 11.7339 84.4555 11.3764 84.7727 11.0781C85.0947 10.7751 85.4806 10.6236 85.9304 10.6236C86.3802 10.6236 86.7637 10.7751 87.081 11.0781C87.4029 11.3764 87.5639 11.7339 87.5639 12.1506C87.5639 12.572 87.4029 12.9342 87.081 13.2372C86.7637 13.5355 86.3802 13.6847 85.9304 13.6847ZM95.6623 15.0909V17.3636H89.0927V15.0909H95.6623ZM90.5842 12.4773H93.6097V22.6477C93.6097 22.9271 93.6523 23.1449 93.7376 23.3011C93.8228 23.4527 93.9412 23.5592 94.0927 23.6207C94.2489 23.6823 94.4289 23.7131 94.6325 23.7131C94.7745 23.7131 94.9165 23.7012 95.0586 23.6776C95.2006 23.6491 95.3095 23.6278 95.3853 23.6136L95.8612 25.8651C95.7096 25.9124 95.4966 25.9669 95.2219 26.0284C94.9473 26.0947 94.6135 26.1349 94.2205 26.1491C93.4914 26.1776 92.8522 26.0805 92.3029 25.858C91.7584 25.6354 91.3346 25.2898 91.0316 24.821C90.7286 24.3523 90.5794 23.7604 90.5842 23.0455V12.4773ZM102.488 26.2131C101.365 26.2131 100.4 25.9858 99.5898 25.5312C98.7849 25.072 98.1647 24.4233 97.729 23.5852C97.2934 22.7424 97.0756 21.7457 97.0756 20.5952C97.0756 19.473 97.2934 18.4882 97.729 17.6406C98.1647 16.7931 98.7778 16.1326 99.5685 15.6591C100.364 15.1856 101.297 14.9489 102.367 14.9489C103.087 14.9489 103.757 15.0649 104.377 15.2969C105.002 15.5241 105.546 15.8674 106.01 16.3267C106.479 16.786 106.844 17.3636 107.104 18.0597C107.364 18.7509 107.495 19.5606 107.495 20.4886V21.3196H98.283V19.4446H104.647C104.647 19.009 104.552 18.6231 104.363 18.2869C104.173 17.9508 103.91 17.688 103.574 17.4986C103.243 17.3045 102.857 17.2074 102.417 17.2074C101.957 17.2074 101.55 17.3139 101.195 17.527C100.845 17.7353 100.57 18.017 100.371 18.3722C100.172 18.7225 100.07 19.1132 100.066 19.544V21.3267C100.066 21.8665 100.165 22.3329 100.364 22.7259C100.568 23.1188 100.854 23.4219 101.223 23.6349C101.593 23.848 102.031 23.9545 102.537 23.9545C102.873 23.9545 103.181 23.9072 103.461 23.8125C103.74 23.7178 103.979 23.5758 104.178 23.3864C104.377 23.197 104.528 22.965 104.632 22.6903L107.431 22.875C107.289 23.5473 106.998 24.1345 106.557 24.6364C106.122 25.1335 105.558 25.5218 104.867 25.8011C104.18 26.0758 103.387 26.2131 102.488 26.2131ZM119.171 16.1562C119.071 15.8106 118.932 15.5052 118.752 15.2401C118.572 14.9702 118.352 14.7429 118.091 14.5582C117.836 14.3688 117.542 14.2244 117.211 14.125C116.884 14.0256 116.522 13.9759 116.124 13.9759C115.381 13.9759 114.727 14.1605 114.164 14.5298C113.605 14.8991 113.169 15.4366 112.857 16.142C112.544 16.8428 112.388 17.6998 112.388 18.7131C112.388 19.7263 112.542 20.5881 112.85 21.2983C113.158 22.0085 113.593 22.5507 114.157 22.9247C114.72 23.294 115.385 23.4787 116.152 23.4787C116.848 23.4787 117.443 23.3556 117.935 23.1094C118.432 22.8584 118.811 22.5057 119.071 22.0511C119.337 21.5966 119.469 21.0592 119.469 20.4389L120.094 20.5312H116.344V18.2159H122.431V20.0483C122.431 21.3267 122.161 22.4252 121.621 23.3438C121.081 24.2576 120.338 24.9631 119.391 25.4602C118.444 25.9527 117.36 26.1989 116.138 26.1989C114.775 26.1989 113.577 25.8982 112.544 25.2969C111.512 24.6908 110.707 23.8314 110.13 22.7188C109.557 21.6013 109.27 20.2756 109.27 18.7415C109.27 17.5625 109.441 16.5114 109.782 15.5881C110.127 14.66 110.61 13.8741 111.23 13.2301C111.851 12.5862 112.573 12.0961 113.397 11.7599C114.221 11.4238 115.113 11.2557 116.074 11.2557C116.898 11.2557 117.665 11.3764 118.375 11.6179C119.086 11.8546 119.715 12.1908 120.265 12.6264C120.819 13.062 121.271 13.5805 121.621 14.1818C121.971 14.7784 122.196 15.4366 122.296 16.1562H119.171ZM127.795 26.206C127.099 26.206 126.478 26.0852 125.934 25.8438C125.389 25.5975 124.959 25.2353 124.641 24.7571C124.329 24.2741 124.173 23.6728 124.173 22.9531C124.173 22.3471 124.284 21.8381 124.506 21.4261C124.729 21.0142 125.032 20.6828 125.415 20.4318C125.799 20.1809 126.235 19.9915 126.722 19.8636C127.215 19.7358 127.731 19.6458 128.271 19.5938C128.905 19.5275 129.416 19.4659 129.805 19.4091C130.193 19.3475 130.475 19.2576 130.65 19.1392C130.825 19.0208 130.913 18.8456 130.913 18.6136V18.571C130.913 18.1212 130.771 17.7732 130.487 17.527C130.207 17.2808 129.809 17.1577 129.293 17.1577C128.749 17.1577 128.316 17.2784 127.994 17.5199C127.672 17.7566 127.459 18.0549 127.354 18.4148L124.556 18.1875C124.698 17.5246 124.978 16.9517 125.394 16.4688C125.811 15.9811 126.348 15.607 127.006 15.3466C127.669 15.0814 128.436 14.9489 129.308 14.9489C129.914 14.9489 130.494 15.0199 131.048 15.1619C131.606 15.304 132.101 15.5241 132.532 15.8224C132.968 16.1207 133.311 16.5043 133.562 16.973C133.813 17.437 133.938 17.9934 133.938 18.642V26H131.069V24.4872H130.984C130.808 24.8281 130.574 25.1288 130.281 25.3892C129.987 25.6449 129.634 25.8461 129.222 25.9929C128.81 26.1349 128.335 26.206 127.795 26.206ZM128.661 24.1179C129.106 24.1179 129.499 24.0303 129.84 23.8551C130.181 23.6752 130.449 23.4337 130.643 23.1307C130.837 22.8277 130.934 22.4844 130.934 22.1009V20.9432C130.839 21.0047 130.709 21.0616 130.543 21.1136C130.382 21.161 130.2 21.206 129.996 21.2486C129.793 21.2865 129.589 21.322 129.386 21.3551C129.182 21.3835 128.997 21.4096 128.832 21.4332C128.477 21.4853 128.166 21.5682 127.901 21.6818C127.636 21.7955 127.43 21.9493 127.283 22.1435C127.137 22.3329 127.063 22.5696 127.063 22.8537C127.063 23.2656 127.212 23.5805 127.511 23.7983C127.814 24.0114 128.197 24.1179 128.661 24.1179ZM136.286 26V15.0909H139.169V17.0156H139.297C139.524 16.3764 139.903 15.8722 140.433 15.5028C140.964 15.1335 141.598 14.9489 142.337 14.9489C143.085 14.9489 143.722 15.1359 144.247 15.5099C144.773 15.8793 145.123 16.3812 145.298 17.0156H145.412C145.634 16.3906 146.037 15.8911 146.619 15.517C147.206 15.1383 147.9 14.9489 148.7 14.9489C149.718 14.9489 150.545 15.2732 151.179 15.9219C151.818 16.5658 152.138 17.4796 152.138 18.6634V26H149.119V19.2599C149.119 18.6539 148.958 18.1993 148.636 17.8963C148.314 17.5933 147.912 17.4418 147.429 17.4418C146.88 17.4418 146.451 17.617 146.143 17.9673C145.836 18.313 145.682 18.7699 145.682 19.3381V26H142.749V19.196C142.749 18.661 142.595 18.2348 142.287 17.9176C141.984 17.6004 141.584 17.4418 141.087 17.4418C140.75 17.4418 140.447 17.527 140.178 17.6974C139.912 17.8632 139.702 18.0975 139.545 18.4006C139.389 18.6989 139.311 19.0492 139.311 19.4517V26H136.286ZM159.499 26.2131C158.377 26.2131 157.411 25.9858 156.602 25.5312C155.797 25.072 155.176 24.4233 154.741 23.5852C154.305 22.7424 154.087 21.7457 154.087 20.5952C154.087 19.473 154.305 18.4882 154.741 17.6406C155.176 16.7931 155.79 16.1326 156.58 15.6591C157.376 15.1856 158.308 14.9489 159.379 14.9489C160.098 14.9489 160.768 15.0649 161.388 15.2969C162.013 15.5241 162.558 15.8674 163.022 16.3267C163.491 16.786 163.855 17.3636 164.116 18.0597C164.376 18.7509 164.506 19.5606 164.506 20.4886V21.3196H155.295V19.4446H161.658C161.658 19.009 161.564 18.6231 161.374 18.2869C161.185 17.9508 160.922 17.688 160.586 17.4986C160.254 17.3045 159.869 17.2074 159.428 17.2074C158.969 17.2074 158.562 17.3139 158.207 17.527C157.856 17.7353 157.582 18.017 157.383 18.3722C157.184 18.7225 157.082 19.1132 157.077 19.544V21.3267C157.077 21.8665 157.177 22.3329 157.376 22.7259C157.579 23.1188 157.866 23.4219 158.235 23.6349C158.604 23.848 159.042 23.9545 159.549 23.9545C159.885 23.9545 160.193 23.9072 160.472 23.8125C160.752 23.7178 160.991 23.5758 161.19 23.3864C161.388 23.197 161.54 22.965 161.644 22.6903L164.442 22.875C164.3 23.5473 164.009 24.1345 163.569 24.6364C163.133 25.1335 162.57 25.5218 161.879 25.8011C161.192 26.0758 160.399 26.2131 159.499 26.2131ZM175.558 18.2017L172.788 18.3722C172.74 18.1354 172.638 17.9223 172.482 17.733C172.326 17.5388 172.12 17.3849 171.864 17.2713C171.613 17.1529 171.313 17.0938 170.962 17.0938C170.494 17.0938 170.098 17.1932 169.776 17.392C169.454 17.5862 169.293 17.8466 169.293 18.1733C169.293 18.4337 169.397 18.6539 169.606 18.8338C169.814 19.0137 170.172 19.1581 170.678 19.267L172.653 19.6648C173.713 19.8826 174.504 20.233 175.025 20.7159C175.546 21.1989 175.806 21.8333 175.806 22.6193C175.806 23.3343 175.595 23.9616 175.174 24.5014C174.757 25.0412 174.184 25.4626 173.455 25.7656C172.731 26.0639 171.895 26.2131 170.948 26.2131C169.504 26.2131 168.353 25.9124 167.496 25.3111C166.644 24.705 166.145 23.8812 165.998 22.8395L168.974 22.6832C169.064 23.1236 169.281 23.4598 169.627 23.6918C169.973 23.919 170.415 24.0327 170.955 24.0327C171.486 24.0327 171.912 23.9309 172.234 23.7273C172.56 23.5189 172.726 23.2514 172.731 22.9247C172.726 22.6501 172.61 22.4252 172.383 22.25C172.156 22.0701 171.805 21.9328 171.332 21.8381L169.442 21.4616C168.377 21.2486 167.584 20.8793 167.063 20.3537C166.547 19.8281 166.289 19.1581 166.289 18.3438C166.289 17.643 166.478 17.0393 166.857 16.5327C167.241 16.026 167.778 15.6354 168.469 15.3608C169.165 15.0862 169.98 14.9489 170.913 14.9489C172.29 14.9489 173.375 15.2401 174.165 15.8224C174.961 16.4048 175.425 17.1979 175.558 18.2017Z" fill="white"/>
</svg>
