<?xml version="1.0" standalone="no"?>
<!DOCTYPE svg PUBLIC "-//W3C//DTD SVG 20010904//EN"
 "http://www.w3.org/TR/2001/REC-SVG-20010904/DTD/svg10.dtd">
<svg version="1.0" xmlns="http://www.w3.org/2000/svg"
 width="900.000000pt" height="900.000000pt" viewBox="0 0 900.000000 900.000000"
 preserveAspectRatio="xMidYMid meet">

<g transform="translate(0.000000,900.000000) scale(0.100000,-0.100000)"
fill="#000000" stroke="none">
<path d="M4445 8507 c-22 -13 -319 -185 -660 -382 -625 -361 -1026 -592 -1682
-971 -197 -114 -443 -256 -548 -316 -104 -61 -240 -139 -302 -175 -102 -59
-112 -67 -115 -96 -2 -18 -1 -891 2 -1942 l5 -1910 685 -395 c377 -218 1027
-593 1445 -835 418 -241 860 -496 982 -567 123 -70 228 -128 234 -128 9 0 807
458 2219 1275 135 78 446 258 693 400 l447 258 0 1932 c0 1534 -3 1935 -12
1943 -7 5 -276 162 -598 347 -322 186 -729 421 -905 523 -687 397 -1694 978
-1765 1019 -41 23 -77 43 -80 43 -3 0 -23 -11 -45 -23z m172 -95 c65 -38 397
-230 738 -427 341 -197 679 -392 750 -433 224 -129 706 -407 1065 -615 190
-109 409 -236 487 -281 l143 -81 0 -1917 0 -1916 -207 -120 c-225 -129 -1554
-896 -1928 -1112 -126 -73 -403 -233 -615 -355 -212 -122 -424 -245 -472 -273
l-86 -50 -74 42 c-40 23 -179 103 -308 178 -129 74 -365 211 -525 303 -159 92
-362 209 -450 260 -293 170 -1674 966 -1862 1074 l-93 53 0 1917 0 1916 53 29
c48 27 1128 650 1492 861 88 51 255 147 370 214 116 66 473 273 795 460 322
186 590 339 597 340 6 1 64 -30 130 -67z"/>
<path d="M4350 7936 c-69 -40 -492 -284 -940 -543 -448 -259 -972 -562 -1165
-673 -192 -111 -421 -243 -508 -292 l-157 -91 2 -1680 3 -1680 410 -236 c226
-130 516 -298 645 -372 521 -302 964 -557 1120 -647 91 -52 292 -169 448 -259
l283 -164 37 22 c20 12 287 166 592 342 305 176 609 351 675 389 66 39 271
157 455 263 184 106 517 299 740 427 l405 234 3 1681 2 1680 -222 128 c-477
276 -993 573 -1203 695 -1196 691 -1473 850 -1486 849 -8 0 -70 -33 -139 -73z
m456 -1861 c129 -22 268 -68 381 -125 101 -51 230 -140 239 -165 5 -12 -253
-526 -276 -549 -4 -4 -36 12 -72 37 -278 198 -631 251 -782 118 -30 -26 -56
-87 -56 -132 0 -61 26 -105 88 -150 69 -49 118 -72 348 -165 331 -133 477
-216 604 -344 87 -89 140 -173 177 -285 24 -71 27 -96 27 -225 0 -108 -4 -161
-17 -209 -41 -151 -98 -257 -196 -363 -195 -211 -471 -309 -831 -295 -219 9
-401 54 -597 148 -93 45 -236 138 -307 201 l-48 43 176 255 c97 140 181 256
185 258 5 2 38 -20 75 -47 282 -214 617 -290 790 -181 92 58 118 183 54 256
-52 59 -133 105 -330 189 -397 168 -554 260 -686 400 -113 120 -171 239 -192
395 -47 345 136 678 465 843 116 58 210 83 410 111 56 8 281 -4 371 -19z"/>
</g>
</svg>
